<?xml version="1.0" encoding="UTF-8" standalone="no"?>
<svg
   width="2000"
   height="2000"
   viewBox="0 0 2000 2000"
   fill="none"
   version="1.1"
   id="svg44"
   sodipodi:docname="transparent-blue.svg"
   inkscape:version="1.2.1 (9c6d41e, 2022-07-14)"
   xmlns:inkscape="http://www.inkscape.org/namespaces/inkscape"
   xmlns:sodipodi="http://sodipodi.sourceforge.net/DTD/sodipodi-0.dtd"
   xmlns="http://www.w3.org/2000/svg"
   xmlns:svg="http://www.w3.org/2000/svg">
  <defs
     id="defs48" />
  <sodipodi:namedview
     id="namedview46"
     pagecolor="#ffffff"
     bordercolor="#000000"
     borderopacity="0.25"
     inkscape:showpageshadow="2"
     inkscape:pageopacity="0.0"
     inkscape:pagecheckerboard="0"
     inkscape:deskcolor="#d1d1d1"
     showgrid="false"
     inkscape:zoom="0.118"
     inkscape:cx="1000"
     inkscape:cy="1000"
     inkscape:window-width="1309"
     inkscape:window-height="456"
     inkscape:window-x="0"
     inkscape:window-y="25"
     inkscape:window-maximized="0"
     inkscape:current-layer="svg44" />
  <path
     d="M1718.95 841C1718.95 825.887 1712.95 811.391 1702.28 800.695C1691.6 789.999 1677.11 783.977 1662 783.95V783.95C1677.1 783.95 1691.59 777.95 1702.27 767.27C1712.95 756.59 1718.95 742.104 1718.95 727V727C1718.98 742.113 1725 756.599 1735.69 767.276C1746.39 777.953 1760.89 783.95 1776 783.95V783.95C1760.88 783.977 1746.38 789.996 1735.69 800.689C1725 811.382 1718.98 825.878 1718.95 841V841Z"
     stroke="#003181"
     stroke-width="8"
     stroke-linejoin="round"
     id="path4" />
  <path
     d="M1604.7 570C1604.7 554.883 1598.62 540.384 1587.8 529.695C1576.98 519.005 1562.3 513 1547 513V513C1562.3 513 1576.98 506.995 1587.8 496.305C1598.62 485.616 1604.7 471.117 1604.7 456V456C1604.7 471.049 1610.72 485.487 1621.46 496.165C1632.19 506.844 1646.77 512.895 1662 513C1646.7 513 1632.02 519.005 1621.2 529.695C1610.38 540.384 1604.3 554.883 1604.3 570H1604.7Z"
     stroke="#003181"
     stroke-width="8"
     stroke-linejoin="round"
     id="path6" />
  <path
     d="M326.517 1420.06C245.734 1368.5 190.305 1278.97 192.04 1178.75"
     stroke="#003181"
     stroke-width="8"
     stroke-linejoin="round"
     id="path8" />
  <path
     d="M325.86 1420.5C368.86 1449.33 487.86 1507 619.86 1507"
     stroke="#003181"
     stroke-width="8"
     id="path10" />
  <path
     d="M192.04 1178.75C192.04 1026.19 308.682 901.006 457.812 887.129C457.619 882.792 457.137 878.552 457.137 874.215C457.137 767.821 543.51 681.569 649.935 681.569C701.605 681.569 748.455 702 782.966 735.055C842.348 577.295 994.272 464.637 1172.9 464.637C1403.1 464.637 1589.73 651.212 1589.73 881.25V881.443C1715.14 922.208 1805.76 1039.88 1805.76 1178.75C1805.76 1262.15 1773.13 1337.93 1719.93 1394"
     stroke="#003181"
     stroke-width="8"
     stroke-linejoin="round"
     id="path12" />
  <path
     d="M681.05 1186.36C661.774 1193.73 640.237 1197.41 616.439 1197.41C576.221 1197.41 545.76 1186.72 525.056 1165.33C504.352 1143.71 494 1112.1 494 1070.51C494 1029.4 504.828 997.559 526.484 974.983C548.14 952.407 578.601 941.12 617.867 941.12C638.809 941.12 658.68 944.447 677.48 951.1V993.163C655.824 988.41 638.095 986.034 624.292 986.034C599.543 986.034 580.98 992.569 568.606 1005.64C556.469 1018.71 550.4 1038.67 550.4 1065.52V1073.72C550.4 1100.34 556.35 1120.18 568.249 1133.25C580.148 1146.08 598.353 1152.5 622.864 1152.5C636.667 1152.5 656.062 1149.77 681.05 1144.3V1186.36Z"
     fill="#2074D5"
     id="path14" />
  <path
     d="M797.504 1189.22C787.509 1193.26 776.8 1195.28 765.377 1195.28C733.25 1195.28 717.187 1177.33 717.187 1141.45V929H769.304V1137.17C769.304 1143.83 770.375 1148.58 772.516 1151.43C774.896 1154.04 778.704 1155.35 783.939 1155.35C787.271 1155.35 791.792 1155 797.504 1154.28V1189.22Z"
     fill="#2074D5"
     id="path16" />
  <path
     d="M910.815 1198.13C882.496 1198.13 860.364 1189.69 844.42 1172.82C828.475 1155.71 820.503 1131.94 820.503 1101.53C820.503 1071.35 828.475 1047.82 844.42 1030.95C860.364 1013.84 882.496 1005.28 910.815 1005.28C939.134 1005.28 961.266 1013.84 977.211 1030.95C993.155 1047.82 1001.13 1071.35 1001.13 1101.53C1001.13 1131.94 993.155 1155.71 977.211 1172.82C961.266 1189.69 939.134 1198.13 910.815 1198.13ZM910.815 1158.2C935.803 1158.2 948.297 1139.31 948.297 1101.53C948.297 1063.98 935.803 1045.21 910.815 1045.21C885.828 1045.21 873.334 1063.98 873.334 1101.53C873.334 1139.31 885.828 1158.2 910.815 1158.2Z"
     fill="#2074D5"
     id="path18" />
  <path
     d="M1163.1 1192.78L1158.1 1173.53C1136.92 1189.93 1114.79 1198.13 1091.71 1198.13C1075.52 1198.13 1062.91 1193.37 1053.87 1183.87C1044.83 1174.13 1040.3 1160.82 1040.3 1143.95V1010.63H1092.42V1129.33C1092.42 1148.58 1100.75 1158.2 1117.41 1158.2C1129.78 1158.2 1141.92 1154.4 1153.82 1146.8V1010.63H1205.94V1192.78H1163.1Z"
     fill="#2074D5"
     id="path20" />
  <path
     d="M1378.92 1192.78L1374.64 1176.74C1359.89 1190.05 1342.4 1196.7 1322.17 1196.7C1307.17 1196.7 1293.97 1193.02 1282.54 1185.65C1271.12 1178.05 1262.2 1167.11 1255.77 1152.86C1249.58 1138.6 1246.49 1121.84 1246.49 1102.6C1246.49 1073.13 1253.51 1049.6 1267.55 1032.02C1281.59 1014.19 1300.15 1005.28 1323.24 1005.28C1342.04 1005.28 1358.34 1010.63 1372.14 1021.32V929H1424.26V1192.78H1378.92ZM1339.3 1157.49C1350.72 1157.49 1361.67 1154.16 1372.14 1147.51V1053.4C1361.91 1047.46 1350.13 1044.49 1336.8 1044.49C1324.19 1044.49 1314.79 1049.25 1308.6 1058.75C1302.42 1068.02 1299.32 1082.16 1299.32 1101.17C1299.32 1120.18 1302.53 1134.32 1308.96 1143.59C1315.62 1152.86 1325.74 1157.49 1339.3 1157.49Z"
     fill="#2074D5"
     id="path22" />
  <path
     d="M904.236 1516.88C884.96 1524.25 863.423 1527.93 839.626 1527.93C799.408 1527.93 768.947 1517.24 748.243 1495.85C727.539 1474.22 717.187 1442.62 717.187 1401.03C717.187 1359.92 728.015 1328.08 749.671 1305.5C771.327 1282.92 801.788 1271.64 841.054 1271.64C861.996 1271.64 881.867 1274.96 900.667 1281.62V1323.68C879.011 1318.93 861.282 1316.55 847.479 1316.55C822.729 1316.55 804.167 1323.09 791.793 1336.16C779.656 1349.23 773.587 1369.19 773.587 1396.04V1404.24C773.587 1430.85 779.537 1450.7 791.436 1463.77C803.334 1476.6 821.54 1483.02 846.051 1483.02C859.854 1483.02 879.249 1480.28 904.236 1474.82V1516.88Z"
     fill="#2074D5"
     id="path24" />
  <path
     d="M1020.69 1519.73C1010.7 1523.77 999.987 1525.79 988.564 1525.79C956.437 1525.79 940.374 1507.85 940.374 1471.97V1259.52H992.49V1467.69C992.49 1474.34 993.561 1479.1 995.703 1481.95C998.083 1484.56 1001.89 1485.87 1007.13 1485.87C1010.46 1485.87 1014.98 1485.51 1020.69 1484.8V1519.73Z"
     fill="#2074D5"
     id="path26" />
  <path
     d="M1177.83 1523.3L1172.83 1504.05C1151.65 1520.44 1129.52 1528.64 1106.43 1528.64C1090.25 1528.64 1077.64 1523.89 1068.59 1514.39C1059.55 1504.64 1055.03 1491.33 1055.03 1474.46V1341.15H1107.15V1459.85C1107.15 1479.1 1115.48 1488.72 1132.13 1488.72C1144.51 1488.72 1156.65 1484.92 1168.54 1477.31V1341.15H1220.66V1523.3H1177.83Z"
     fill="#2074D5"
     id="path28" />
  <path
     d="M1270.5 1523.3V1259.52H1322.61V1355.05C1329.51 1349.11 1337.61 1344.47 1346.89 1341.15C1356.17 1337.58 1365.33 1335.8 1374.37 1335.8C1397.46 1335.8 1415.66 1344.24 1428.99 1361.11C1442.55 1377.98 1449.34 1400.79 1449.34 1429.55C1449.34 1448.32 1446.24 1465.07 1440.05 1479.81C1433.87 1494.54 1424.94 1506.19 1413.28 1514.74C1401.62 1523.06 1388.18 1527.22 1372.95 1527.22C1362 1527.22 1351.77 1525.32 1342.25 1521.51C1332.73 1517.71 1324.76 1512.37 1318.33 1505.47L1313.69 1523.3H1270.5ZM1357.6 1375.01C1345.22 1375.01 1333.56 1378.22 1322.61 1384.63V1478.38C1333.08 1484.8 1344.75 1488.01 1357.6 1488.01C1370.92 1488.01 1380.68 1483.49 1386.87 1474.46C1393.29 1465.43 1396.51 1451.17 1396.51 1431.69C1396.51 1411.96 1393.41 1397.59 1387.22 1388.55C1381.04 1379.52 1371.16 1375.01 1357.6 1375.01Z"
     fill="#2074D5"
     id="path30" />
  <path
     d="M1567.58 1473.04C1567.58 1468.28 1566.15 1464.6 1563.29 1461.99C1560.67 1459.37 1555.2 1456.52 1546.87 1453.43L1519.03 1442.38C1504.51 1436.68 1494.04 1429.67 1487.61 1421.35C1481.19 1413.03 1477.98 1402.46 1477.98 1389.62C1477.98 1373.46 1484.4 1360.51 1497.25 1350.77C1510.34 1340.79 1527.71 1335.8 1549.37 1335.8C1569.36 1335.8 1587.8 1339.72 1604.7 1347.56V1382.14C1586.61 1376.67 1569.72 1373.94 1554.01 1373.94C1544.25 1373.94 1537.11 1375.13 1532.59 1377.5C1528.07 1379.88 1525.81 1383.68 1525.81 1388.91C1525.81 1392.95 1527.12 1396.28 1529.74 1398.89C1532.59 1401.27 1538.42 1404.24 1547.23 1407.8L1574.36 1418.85C1589.11 1424.79 1599.58 1431.69 1605.77 1439.53C1612.2 1447.37 1615.41 1457.59 1615.41 1470.18C1615.41 1487.77 1608.63 1502.03 1595.06 1512.96C1581.73 1523.65 1564.12 1529 1542.23 1529C1517.72 1529 1496.06 1524.13 1477.26 1514.39V1479.81C1500.82 1487.18 1522.36 1490.86 1541.87 1490.86C1559.01 1490.86 1567.58 1484.92 1567.58 1473.04Z"
     fill="#2074D5"
     id="path32" />
  <path
     d="M792 394C792 378.883 786.1 364.385 775.598 353.695C765.096 343.005 750.852 337 736 337V337C743.354 337 750.636 335.526 757.43 332.661C764.225 329.797 770.398 325.598 775.598 320.305C780.798 315.012 784.923 308.729 787.737 301.813C790.552 294.897 792 287.485 792 280C792 287.485 793.449 294.897 796.263 301.813C799.077 308.729 803.202 315.012 808.402 320.305C813.602 325.598 819.775 329.797 826.57 332.661C833.364 335.526 840.646 337 848 337C833.148 337 818.904 343.005 808.402 353.695C797.9 364.385 792 378.883 792 394V394Z"
     stroke="#003181"
     stroke-width="8"
     stroke-linejoin="round"
     id="path34" />
  <path
     d="M315.549 840.901C315.497 825.805 309.516 811.345 298.917 800.689C288.318 790.033 273.964 784.05 259 784.05V784.05C273.998 784.05 288.381 778.039 298.986 767.34C309.591 756.641 315.549 742.13 315.549 727C315.536 734.487 316.987 741.903 319.818 748.824C322.649 755.745 326.805 762.035 332.048 767.334C337.292 772.633 343.519 776.837 350.374 779.705C357.23 782.573 364.578 784.05 372 784.05V784.05C357.028 784.05 342.67 790.05 332.083 800.73C321.497 811.41 315.549 825.896 315.549 841V840.901Z"
     stroke="#003181"
     stroke-width="8"
     stroke-linejoin="round"
     id="path36" />
  <path
     d="M574.4 522.4C574.4 526.1 574.8 529.1 575.5 531.3C576.3 533.5 577.3 535.9 578.7 538.5C579.2 539.3 579.4 540.1 579.4 540.8C579.4 541.8 578.8 542.8 577.5 543.8L571.2 548C570.3 548.6 569.4 548.9 568.6 548.9C567.6 548.9 566.6 548.4 565.6 547.5C564.2 546 563 544.4 562 542.8C561 541.1 560 539.2 558.9 536.9C551.1 546.1 541.3 550.7 529.5 550.7C521.1 550.7 514.4 548.3 509.5 543.5C504.6 538.7 502.1 532.3 502.1 524.3C502.1 515.8 505.1 508.9 511.2 503.7C517.3 498.5 525.4 495.9 535.7 495.9C539.1 495.9 542.6 496.2 546.3 496.7C550 497.2 553.8 498 557.8 498.9V491.6C557.8 484 556.2 478.7 553.1 475.6C549.9 472.5 544.5 471 536.8 471C533.3 471 529.7 471.4 526 472.3C522.3 473.2 518.7 474.3 515.2 475.7C513.6 476.4 512.4 476.8 511.7 477C511 477.2 510.5 477.3 510.1 477.3C508.7 477.3 508 476.3 508 474.2V469.3C508 467.7 508.2 466.5 508.7 465.8C509.2 465.1 510.1 464.4 511.5 463.7C515 461.9 519.2 460.4 524.1 459.2C529 457.9 534.2 457.3 539.7 457.3C551.6 457.3 560.3 460 565.9 465.4C571.4 470.8 574.2 479 574.2 490V522.4H574.4ZM533.8 537.6C537.1 537.6 540.5 537 544.1 535.8C547.7 534.6 550.9 532.4 553.6 529.4C555.2 527.5 556.4 525.4 557 523C557.6 520.6 558 517.7 558 514.3V510.1C555.1 509.4 552 508.8 548.8 508.4C545.6 508 542.5 507.8 539.4 507.8C532.7 507.8 527.8 509.1 524.5 511.8C521.2 514.5 519.6 518.3 519.6 523.3C519.6 528 520.8 531.5 523.3 533.9C525.7 536.4 529.2 537.6 533.8 537.6ZM614.1 548.4C612.3 548.4 611.1 548.1 610.3 547.4C609.5 546.8 608.8 545.4 608.2 543.5L584.7 466.2C584.1 464.2 583.8 462.9 583.8 462.2C583.8 460.6 584.6 459.7 586.2 459.7H596C597.9 459.7 599.2 460 599.9 460.7C600.7 461.3 601.3 462.7 601.9 464.6L618.7 530.8L634.3 464.6C634.8 462.6 635.4 461.3 636.2 460.7C637 460.1 638.4 459.7 640.2 459.7H648.2C650.1 459.7 651.4 460 652.2 460.7C653 461.3 653.7 462.7 654.1 464.6L669.9 531.6L687.2 464.6C687.8 462.6 688.5 461.3 689.2 460.7C690 460.1 691.3 459.7 693.1 459.7H702.4C704 459.7 704.9 460.5 704.9 462.2C704.9 462.7 704.8 463.2 704.7 463.8C704.6 464.4 704.4 465.2 704 466.3L679.9 543.6C679.3 545.6 678.6 546.9 677.8 547.5C677 548.1 675.7 548.5 674 548.5H665.4C663.5 548.5 662.2 548.2 661.4 547.5C660.6 546.8 659.9 545.5 659.5 543.5L644 479L628.6 543.4C628.1 545.4 627.5 546.7 626.7 547.4C625.9 548.1 624.5 548.4 622.7 548.4H614.1ZM742.6 551.1C737.4 551.1 732.2 550.5 727.2 549.3C722.2 548.1 718.3 546.8 715.7 545.3C714.1 544.4 713 543.4 712.6 542.5C712.2 541.6 712 540.6 712 539.7V534.6C712 532.5 712.8 531.5 714.3 531.5C714.9 531.5 715.5 531.6 716.1 531.8C716.7 532 717.6 532.4 718.6 532.8C722 534.3 725.7 535.5 729.6 536.3C733.6 537.1 737.5 537.5 741.5 537.5C747.8 537.5 752.7 536.4 756.1 534.2C759.5 532 761.3 528.8 761.3 524.7C761.3 521.9 760.4 519.6 758.6 517.7C756.8 515.8 753.4 514.1 748.5 512.5L734 508C726.7 505.7 721.3 502.3 718 497.8C714.7 493.4 713 488.5 713 483.3C713 479.1 713.9 475.4 715.7 472.2C717.5 469 719.9 466.2 722.9 464C725.9 461.7 729.3 460 733.3 458.8C737.3 457.6 741.5 457.1 745.9 457.1C748.1 457.1 750.4 457.2 752.6 457.5C754.9 457.8 757 458.2 759.1 458.6C761.1 459.1 763 459.6 764.8 460.2C766.6 460.8 768 461.4 769 462C770.4 462.8 771.4 463.6 772 464.5C772.6 465.3 772.9 466.4 772.9 467.8V472.5C772.9 474.6 772.1 475.7 770.6 475.7C769.8 475.7 768.5 475.3 766.8 474.5C761.1 471.9 754.7 470.6 747.6 470.6C741.9 470.6 737.4 471.5 734.3 473.4C731.2 475.3 729.6 478.2 729.6 482.3C729.6 485.1 730.6 487.5 732.6 489.4C734.6 491.3 738.3 493.2 743.6 494.9L757.8 499.4C765 501.7 770.2 504.9 773.3 509C776.4 513.1 777.9 517.8 777.9 523C777.9 527.3 777 531.2 775.3 534.6C773.5 538 771.1 541 768 543.4C764.9 545.9 761.2 547.7 756.9 549C752.4 550.4 747.7 551.1 742.6 551.1Z"
     fill="#2074D5"
     id="path38" />
  <path
     d="M761.5 599.7C728.6 624 680.8 636.9 639.7 636.9C582.1 636.9 530.2 615.6 491 580.2C487.9 577.4 490.7 573.6 494.4 575.8C536.8 600.4 589.1 615.3 643.2 615.3C679.7 615.3 719.8 607.7 756.7 592.1C762.2 589.6 766.9 595.7 761.5 599.7Z"
     fill="#2074D5"
     id="path40" />
  <path
     d="M775.2 584.1C771 578.7 747.4 581.5 736.7 582.8C733.5 583.2 733 580.4 735.9 578.3C754.7 565.1 785.6 568.9 789.2 573.3C792.8 577.8 788.2 608.7 770.6 623.5C767.9 625.8 765.3 624.6 766.5 621.6C770.5 611.7 779.4 589.4 775.2 584.1Z"
     fill="#2074D5"
     id="path42" />
</svg>
